<?xml version="1.0" encoding="UTF-8" standalone="no"?>
<svg
   version="1.1"
   width="32"
   height="32"
   id="svg6"
   sodipodi:docname="favicon.svg"
   inkscape:version="1.4.2 (f4327f4, 2025-05-13)"
   xml:space="preserve"
   xmlns:inkscape="http://www.inkscape.org/namespaces/inkscape"
   xmlns:sodipodi="http://sodipodi.sourceforge.net/DTD/sodipodi-0.dtd"
   xmlns="http://www.w3.org/2000/svg"
   xmlns:svg="http://www.w3.org/2000/svg"><defs
     id="defs6"><g
       id="g1" /></defs><sodipodi:namedview
     id="namedview6"
     pagecolor="#ffffff"
     bordercolor="#000000"
     borderopacity="0.25"
     inkscape:showpageshadow="2"
     inkscape:pageopacity="0.0"
     inkscape:pagecheckerboard="0"
     inkscape:deskcolor="#d1d1d1"
     inkscape:zoom="5.8803571"
     inkscape:cx="58.244762"
     inkscape:cy="-19.98178"
     inkscape:window-width="1718"
     inkscape:window-height="1341"
     inkscape:window-x="178"
     inkscape:window-y="0"
     inkscape:window-maximized="0"
     inkscape:current-layer="svg6" /><path
     d="m 19.524171,17.162611 c 2.042451,1.46062 2.512838,2.259653 3.079376,4.730559 0.08022,0.888202 0.08022,0.888202 0.162072,1.794349 -0.855742,0 -1.711485,0 -2.593159,0 -0.200564,-0.524847 -0.401129,-1.049695 -0.607772,-1.590446 -0.535391,-1.600759 -0.535391,-1.600759 -1.337097,-2.324498 -1.516639,0.187461 -3.030051,0.404131 -4.538029,0.65249 -0.427871,1.07661 -0.855743,2.15322 -1.29658,3.262454 -0.641806,0 -1.283613,0 -1.944869,0 -0.214419,-2.373892 -0.316401,-3.508644 1.175026,-5.42383 2.69201,-2.09015 4.687769,-1.838676 7.901032,-1.101078 z"
     fill="#8e59f7"
     id="path1"
     style="stroke-width:0.650387" /><path
     d="m 6.5583747,11.942685 c 0.8557427,0.430644 1.7114851,0.861287 2.5931592,1.304981 C 8.9375982,14.108954 8.7236626,14.970242 8.5032441,15.857629 7.6475016,15.426986 6.7917591,14.996342 5.9100848,14.552648 6.1240204,13.69136 6.3379561,12.830072 6.5583747,11.942685 Z"
     fill="#8f58f7"
     id="path2"
     style="stroke-width:0.650387" /><path
     d="m 25.358778,11.942685 c 0.427872,0 0.855743,0 1.29658,0 0.213935,0.645965 0.427871,1.291932 0.648289,1.957472 -0.641806,0.645966 -1.283613,1.291932 -1.944869,1.957472 -0.641806,-0.215321 -1.283613,-0.430643 -1.944869,-0.65249 1.215543,-2.528402 1.215543,-2.528402 1.944869,-3.262454 z"
     fill="#9159f7"
     id="path3"
     style="stroke-width:0.650387" /><path
     d="m 14.986142,8.6802305 c 0.855743,0 1.711485,0 2.593159,0 0,1.0766094 0,2.1532195 0,3.2624545 -0.855742,0 -1.711485,0 -2.593159,0 0,-1.07661 0,-2.1532201 0,-3.2624545 z"
     fill="#895bf8"
     id="path4"
     style="stroke-width:0.650387" /><path
     d="m 27.303647,21.730046 c 1.069679,0 2.139357,0 3.241449,0 0,0.645967 0,1.291932 0,1.957473 -1.283613,0 -2.567227,0 -3.889738,0 0.213935,-0.645966 0.427871,-1.291932 0.648289,-1.957473 z"
     fill="#9159f8"
     id="path5"
     style="stroke-width:0.650387" /><path
     d="m 2.0203463,21.730046 c 1.2836137,0 2.5672274,0 3.8897385,0 0,0.645967 0,1.291932 0,1.957473 -1.2836137,0 -2.5672274,0 -3.8897385,0 0,-0.645966 0,-1.291932 0,-1.957473 z"
     fill="#8a5ff7"
     id="path6"
     style="stroke-width:0.650387" /></svg>
