<?xml version="1.0" encoding="UTF-8" standalone="no"?>
<svg
   version="1.1"
  width="320"
  height="64"
   viewBox="0 0 200 40"
   id="svg6"
   sodipodi:docname="logo.svg"
   inkscape:version="1.4.2 (f4327f4, 2025-05-13)"
   xml:space="preserve"
   xmlns:inkscape="http://www.inkscape.org/namespaces/inkscape"
   xmlns:sodipodi="http://sodipodi.sourceforge.net/DTD/sodipodi-0.dtd"
   xmlns="http://www.w3.org/2000/svg"
   xmlns:svg="http://www.w3.org/2000/svg"><defs
     id="defs6"><g
       id="g1" /></defs><sodipodi:namedview
     id="namedview6"
     pagecolor="#ffffff"
     bordercolor="#000000"
     borderopacity="0.25"
     inkscape:showpageshadow="2"
     inkscape:pageopacity="0.0"
     inkscape:pagecheckerboard="0"
     inkscape:deskcolor="#d1d1d1"
     inkscape:zoom="5.8803571"
     inkscape:cx="58.244762"
     inkscape:cy="-19.98178"
     inkscape:window-width="1718"
     inkscape:window-height="1341"
     inkscape:window-x="178"
     inkscape:window-y="42"
     inkscape:window-maximized="0"
     inkscape:current-layer="svg6" /><path
     d="m 19.524171,17.162611 c 2.042451,1.46062 2.512838,2.259653 3.079376,4.730559 0.08022,0.888202 0.08022,0.888202 0.162072,1.794349 -0.855742,0 -1.711485,0 -2.593159,0 -0.200564,-0.524847 -0.401129,-1.049695 -0.607772,-1.590446 -0.535391,-1.600759 -0.535391,-1.600759 -1.337097,-2.324498 -1.516639,0.187461 -3.030051,0.404131 -4.538029,0.65249 -0.427871,1.07661 -0.855743,2.15322 -1.29658,3.262454 -0.641806,0 -1.283613,0 -1.944869,0 -0.214419,-2.373892 -0.316401,-3.508644 1.175026,-5.42383 2.69201,-2.09015 4.687769,-1.838676 7.901032,-1.101078 z"
     fill="#8e59f7"
     id="path1"
     style="stroke-width:0.650387" /><path
     d="m 6.5583747,11.942685 c 0.8557427,0.430644 1.7114851,0.861287 2.5931592,1.304981 C 8.9375982,14.108954 8.7236626,14.970242 8.5032441,15.857629 7.6475016,15.426986 6.7917591,14.996342 5.9100848,14.552648 6.1240204,13.69136 6.3379561,12.830072 6.5583747,11.942685 Z"
     fill="#8f58f7"
     id="path2"
     style="stroke-width:0.650387" /><path
     d="m 25.358778,11.942685 c 0.427872,0 0.855743,0 1.29658,0 0.213935,0.645965 0.427871,1.291932 0.648289,1.957472 -0.641806,0.645966 -1.283613,1.291932 -1.944869,1.957472 -0.641806,-0.215321 -1.283613,-0.430643 -1.944869,-0.65249 1.215543,-2.528402 1.215543,-2.528402 1.944869,-3.262454 z"
     fill="#9159f7"
     id="path3"
     style="stroke-width:0.650387" /><path
     d="m 14.986142,8.6802305 c 0.855743,0 1.711485,0 2.593159,0 0,1.0766094 0,2.1532195 0,3.2624545 -0.855742,0 -1.711485,0 -2.593159,0 0,-1.07661 0,-2.1532201 0,-3.2624545 z"
     fill="#895bf8"
     id="path4"
     style="stroke-width:0.650387" /><path
     d="m 27.303647,21.730046 c 1.069679,0 2.139357,0 3.241449,0 0,0.645967 0,1.291932 0,1.957473 -1.283613,0 -2.567227,0 -3.889738,0 0.213935,-0.645966 0.427871,-1.291932 0.648289,-1.957473 z"
     fill="#9159f8"
     id="path5"
     style="stroke-width:0.650387" /><path
     d="m 2.0203463,21.730046 c 1.2836137,0 2.5672274,0 3.8897385,0 0,0.645967 0,1.291932 0,1.957473 -1.2836137,0 -2.5672274,0 -3.8897385,0 0,-0.645966 0,-1.291932 0,-1.957473 z"
     fill="#8a5ff7"
     id="path6"
     style="stroke-width:0.650387" /><g
     id="g38"
     transform="matrix(0.97005148,0,0,0.97713972,-78.481086,-163.35774)"><g
       fill="#8b5df7"
       fill-opacity="1"
       id="g4"><g
         transform="translate(117.67163,192.37425)"
         id="g3"><g
           id="g2"><path
             d="m 4.015625,0 h -2.4375 v -13.28125 h 2.125 l 4.578125,6.1875 4.609375,-6.1875 h 2.125 V 0 h -2.4375 v -9.390625 l -3.96875,5.4375 h -0.65625 l -3.9375,-5.453125 z m 0,0"
             id="path1-0" /></g></g></g><g
       fill="#8b5df7"
       fill-opacity="1"
       id="g7"><g
         transform="translate(134.24718,192.37425)"
         id="g6"><g
           id="g5"><path
             d="m 10.9375,-5.203125 c 0,0.125 -0.0078,0.246094 -0.01563,0.359375 0,0.117188 -0.01172,0.265625 -0.03125,0.453125 H 3.046875 C 3.128906,-3.847656 3.300781,-3.382812 3.5625,-3 c 0.269531,0.386719 0.597656,0.683594 0.984375,0.890625 0.394531,0.199219 0.820313,0.296875 1.28125,0.296875 0.601563,0 1.085937,-0.113281 1.453125,-0.34375 0.375,-0.238281 0.644531,-0.570312 0.8125,-1 h 2.578125 c -0.125,0.449219 -0.328125,0.882812 -0.609375,1.296875 C 9.78125,-1.441406 9.429688,-1.070312 9.015625,-0.75 8.609375,-0.425781 8.140625,-0.171875 7.609375,0.015625 7.078125,0.203125 6.5,0.296875 5.875,0.296875 c -0.75,0 -1.445312,-0.136719 -2.078125,-0.40625 -0.636719,-0.28125 -1.1875,-0.664063 -1.65625,-1.15625 -0.460937,-0.488281 -0.820313,-1.050781 -1.078125,-1.6875 -0.261719,-0.644531 -0.390625,-1.332031 -0.390625,-2.0625 0,-0.738281 0.128906,-1.425781 0.390625,-2.0625 0.257812,-0.644531 0.617188,-1.210937 1.078125,-1.703125 0.46875,-0.488281 1.019531,-0.867188 1.65625,-1.140625 0.632813,-0.28125 1.328125,-0.421875 2.078125,-0.421875 0.757812,0 1.445312,0.140625 2.0625,0.421875 0.625,0.273437 1.160156,0.648437 1.609375,1.125 0.445313,0.46875 0.789063,1.015625 1.03125,1.640625 0.238281,0.617188 0.359375,1.265625 0.359375,1.953125 z M 3.140625,-6.21875 H 8.53125 C 8.5,-6.59375 8.359375,-6.9375 8.109375,-7.25 7.859375,-7.5625 7.535156,-7.8125 7.140625,-8 6.753906,-8.1875 6.332031,-8.28125 5.875,-8.28125 c -0.398438,0 -0.777344,0.074219 -1.140625,0.21875 -0.367187,0.148438 -0.6875,0.371094 -0.96875,0.671875 -0.28125,0.304687 -0.492187,0.695313 -0.625,1.171875 z m 0,0"
             id="path4-9" /></g></g></g><g
       fill="#8b5df7"
       fill-opacity="1"
       id="g10"><g
         transform="translate(145.71731,192.37425)"
         id="g9"><g
           id="g8"><path
             d="m 13.6875,-10.34375 c 1.269531,0 2.21875,0.429688 2.84375,1.28125 0.625,0.855469 0.9375,2.074219 0.9375,3.65625 V 0 H 15.125 v -5.359375 c 0,-0.988281 -0.195312,-1.703125 -0.578125,-2.140625 -0.375,-0.445312 -0.886719,-0.671875 -1.53125,-0.671875 -0.417969,0 -0.8125,0.132813 -1.1875,0.390625 -0.375,0.25 -0.679687,0.605469 -0.90625,1.0625 -0.21875,0.460938 -0.328125,0.992188 -0.328125,1.59375 V 0 H 8.25 V -5.359375 C 8.25,-6.347656 8.054688,-7.0625 7.671875,-7.5 c -0.375,-0.445312 -0.886719,-0.671875 -1.53125,-0.671875 -0.417969,0 -0.8125,0.132813 -1.1875,0.390625 -0.367187,0.25 -0.664063,0.605469 -0.890625,1.0625 C 3.832031,-6.257812 3.71875,-5.726562 3.71875,-5.125 V 0 H 1.390625 V -10.046875 H 3.59375 l 0.03125,1.5625 C 3.800781,-8.835938 4.046875,-9.15625 4.359375,-9.4375 c 0.3125,-0.28125 0.675781,-0.5 1.09375,-0.65625 0.414063,-0.164062 0.875,-0.25 1.375,-0.25 0.84375,0 1.539063,0.195312 2.09375,0.578125 0.550781,0.386719 0.96875,0.949219 1.25,1.6875 0.4375,-0.769531 0.953125,-1.335937 1.546875,-1.703125 0.601562,-0.375 1.257812,-0.5625 1.96875,-0.5625 z m 0,0"
             id="path7" /></g></g></g><g
       fill="#8b5df7"
       fill-opacity="1"
       id="g13"><g
         transform="translate(164.4795,192.37425)"
         id="g12"><g
           id="g11"><path
             d="m 5.953125,0.296875 c -0.761719,0 -1.464844,-0.136719 -2.109375,-0.40625 C 3.195312,-0.378906 2.632812,-0.757812 2.15625,-1.25 1.6875,-1.738281 1.320312,-2.304688 1.0625,-2.953125 0.800781,-3.597656 0.671875,-4.285156 0.671875,-5.015625 c 0,-0.738281 0.128906,-1.425781 0.390625,-2.0625 0.257812,-0.644531 0.625,-1.210937 1.09375,-1.703125 0.476562,-0.488281 1.039062,-0.867188 1.6875,-1.140625 0.644531,-0.28125 1.347656,-0.421875 2.109375,-0.421875 0.78125,0 1.488281,0.140625 2.125,0.421875 0.644531,0.273437 1.207031,0.652344 1.6875,1.140625 0.476563,0.492188 0.847656,1.058594 1.109375,1.703125 0.257812,0.636719 0.390625,1.324219 0.390625,2.0625 0,0.742187 -0.132813,1.433594 -0.390625,2.078125 -0.261719,0.636719 -0.632812,1.199219 -1.109375,1.6875 -0.480469,0.492188 -1.042969,0.871094 -1.6875,1.140625 -0.648437,0.269531 -1.355469,0.40625 -2.125,0.40625 z m 0.015625,-2.1875 c 0.5625,0 1.0625,-0.132813 1.5,-0.40625 C 7.914062,-2.566406 8.269531,-2.9375 8.53125,-3.40625 8.789062,-3.875 8.921875,-4.410156 8.921875,-5.015625 8.921875,-5.617188 8.789062,-6.15625 8.53125,-6.625 8.269531,-7.101562 7.914062,-7.476562 7.46875,-7.75 c -0.4375,-0.269531 -0.9375,-0.40625 -1.5,-0.40625 -0.5625,0 -1.070312,0.136719 -1.515625,0.40625 -0.4375,0.273438 -0.789063,0.648438 -1.046875,1.125 -0.261719,0.46875 -0.390625,1.007812 -0.390625,1.609375 0,0.605469 0.128906,1.140625 0.390625,1.609375 0.257812,0.46875 0.609375,0.839844 1.046875,1.109375 0.445313,0.273437 0.953125,0.40625 1.515625,0.40625 z m 0,0"
             id="path10" /></g></g></g><g
       fill="#8b5df7"
       fill-opacity="1"
       id="g16"><g
         transform="translate(176.40844,192.37425)"
         id="g15"><g
           id="g14"><path
             d="M 3.75,0 H 1.390625 V -10.046875 H 3.65625 v 1.828125 c 0.226562,-0.550781 0.570312,-0.992188 1.03125,-1.328125 0.457031,-0.332031 1.007812,-0.5 1.65625,-0.5 h 1.078125 v 2.03125 H 6.46875 c -0.53125,0 -1.007812,0.132813 -1.421875,0.390625 C 4.640625,-7.363281 4.320312,-6.984375 4.09375,-6.484375 3.863281,-5.992188 3.75,-5.390625 3.75,-4.671875 Z m 0,0"
             id="path13" /></g></g></g><g
       fill="#8b5df7"
       fill-opacity="1"
       id="g19"><g
         transform="translate(184.13003,192.37425)"
         id="g18"><g
           id="g17"><path
             d="m 2.171875,3.421875 h -1.6875 V 1.46875 H 2.15625 C 2.5,1.46875 2.78125,1.410156 3,1.296875 3.226562,1.191406 3.421875,1.019531 3.578125,0.78125 3.734375,0.550781 3.882812,0.25 4.03125,-0.125 l 0.109375,-0.34375 -3.84375,-9.578125 H 2.78125 l 2.359375,6.078125 0.265625,1.03125 0.265625,-1.015625 2.3125,-6.078125 2.53125,-0.01563 -3.921875,9.82813 C 6.300781,0.53125 6.007812,1.140625 5.71875,1.609375 5.425781,2.085938 5.109375,2.457031 4.765625,2.71875 4.429688,2.988281 4.054688,3.171875 3.640625,3.265625 3.222656,3.367188 2.734375,3.421875 2.171875,3.421875 Z m 0,0"
             id="path16" /></g></g></g><g
       fill="#8b5df7"
       fill-opacity="1"
       id="g22"><g
         transform="translate(194.72159,192.37425)"
         id="g21"><g
           id="g20" /></g></g><g
       fill="#8b5df7"
       fill-opacity="1"
       id="g25"><g
         transform="translate(199.59273,192.37425)"
         id="g24"><g
           id="g23"><path
             d="m 4.015625,0 h -2.4375 v -13.28125 h 2.125 l 4.578125,6.1875 4.609375,-6.1875 h 2.125 V 0 h -2.4375 v -9.390625 l -3.96875,5.4375 h -0.65625 l -3.9375,-5.453125 z m 0,0"
             id="path22" /></g></g></g><g
       fill="#8b5df7"
       fill-opacity="1"
       id="g28"><g
         transform="translate(216.16829,192.37425)"
         id="g27"><g
           id="g26"><path
             d="m 5.953125,0.296875 c -0.761719,0 -1.464844,-0.136719 -2.109375,-0.40625 C 3.195312,-0.378906 2.632812,-0.757812 2.15625,-1.25 1.6875,-1.738281 1.320312,-2.304688 1.0625,-2.953125 0.800781,-3.597656 0.671875,-4.285156 0.671875,-5.015625 c 0,-0.738281 0.128906,-1.425781 0.390625,-2.0625 0.257812,-0.644531 0.625,-1.210937 1.09375,-1.703125 0.476562,-0.488281 1.039062,-0.867188 1.6875,-1.140625 0.644531,-0.28125 1.347656,-0.421875 2.109375,-0.421875 0.78125,0 1.488281,0.140625 2.125,0.421875 0.644531,0.273437 1.207031,0.652344 1.6875,1.140625 0.476563,0.492188 0.847656,1.058594 1.109375,1.703125 0.257812,0.636719 0.390625,1.324219 0.390625,2.0625 0,0.742187 -0.132813,1.433594 -0.390625,2.078125 -0.261719,0.636719 -0.632812,1.199219 -1.109375,1.6875 -0.480469,0.492188 -1.042969,0.871094 -1.6875,1.140625 -0.648437,0.269531 -1.355469,0.40625 -2.125,0.40625 z m 0.015625,-2.1875 c 0.5625,0 1.0625,-0.132813 1.5,-0.40625 C 7.914062,-2.566406 8.269531,-2.9375 8.53125,-3.40625 8.789062,-3.875 8.921875,-4.410156 8.921875,-5.015625 8.921875,-5.617188 8.789062,-6.15625 8.53125,-6.625 8.269531,-7.101562 7.914062,-7.476562 7.46875,-7.75 c -0.4375,-0.269531 -0.9375,-0.40625 -1.5,-0.40625 -0.5625,0 -1.070312,0.136719 -1.515625,0.40625 -0.4375,0.273438 -0.789063,0.648438 -1.046875,1.125 -0.261719,0.46875 -0.390625,1.007812 -0.390625,1.609375 0,0.605469 0.128906,1.140625 0.390625,1.609375 0.257812,0.46875 0.609375,0.839844 1.046875,1.109375 0.445313,0.273437 0.953125,0.40625 1.515625,0.40625 z m 0,0"
             id="path25" /></g></g></g><g
       fill="#8b5df7"
       fill-opacity="1"
       id="g31"><g
         transform="translate(228.09722,192.37425)"
         id="g30"><g
           id="g29"><path
             d="m 5.53125,0.296875 c -0.710938,0 -1.367188,-0.136719 -1.96875,-0.40625 C 2.96875,-0.378906 2.457031,-0.757812 2.03125,-1.25 c -0.429688,-0.488281 -0.761719,-1.054688 -1,-1.703125 -0.242188,-0.644531 -0.359375,-1.332031 -0.359375,-2.0625 0,-0.738281 0.113281,-1.425781 0.34375,-2.0625 0.238281,-0.644531 0.570313,-1.210937 1,-1.703125 0.4375,-0.488281 0.953125,-0.867188 1.546875,-1.140625 0.601562,-0.28125 1.269531,-0.421875 2,-0.421875 0.539062,0 1.035156,0.101562 1.484375,0.296875 0.445313,0.1875 0.832031,0.433594 1.15625,0.734375 0.320313,0.292969 0.570313,0.59375 0.75,0.90625 L 8.890625,-9.4375 V -13.75 H 11.25 V 0 H 9 V -1.6875 C 8.8125,-1.332031 8.550781,-1.003906 8.21875,-0.703125 7.882812,-0.398438 7.492188,-0.160156 7.046875,0.015625 6.597656,0.203125 6.09375,0.296875 5.53125,0.296875 Z M 5.953125,-1.875 c 0.414063,0 0.800781,-0.078125 1.15625,-0.234375 0.351563,-0.164063 0.664063,-0.390625 0.9375,-0.671875 0.269531,-0.289062 0.484375,-0.625 0.640625,-1 C 8.84375,-4.164062 8.921875,-4.578125 8.921875,-5.015625 8.921875,-5.460938 8.84375,-5.875 8.6875,-6.25 8.539062,-6.625 8.332031,-6.953125 8.0625,-7.234375 7.789062,-7.523438 7.472656,-7.75 7.109375,-7.90625 c -0.355469,-0.164062 -0.742187,-0.25 -1.15625,-0.25 -0.554687,0 -1.054687,0.136719 -1.5,0.40625 -0.449219,0.273438 -0.804687,0.640625 -1.0625,1.109375 C 3.128906,-6.171875 3,-5.628906 3,-5.015625 c 0,0.59375 0.125,1.132813 0.375,1.609375 0.257812,0.46875 0.609375,0.84375 1.046875,1.125 0.445313,0.273438 0.957031,0.40625 1.53125,0.40625 z m 0,0"
             id="path28" /></g></g></g><g
       fill="#8b5df7"
       fill-opacity="1"
       id="g34"><g
         transform="translate(240.71924,192.37425)"
         id="g33"><g
           id="g32"><path
             d="m 10.9375,-5.203125 c 0,0.125 -0.0078,0.246094 -0.01563,0.359375 0,0.117188 -0.01172,0.265625 -0.03125,0.453125 H 3.046875 C 3.128906,-3.847656 3.300781,-3.382812 3.5625,-3 c 0.269531,0.386719 0.597656,0.683594 0.984375,0.890625 0.394531,0.199219 0.820313,0.296875 1.28125,0.296875 0.601563,0 1.085937,-0.113281 1.453125,-0.34375 0.375,-0.238281 0.644531,-0.570312 0.8125,-1 h 2.578125 c -0.125,0.449219 -0.328125,0.882812 -0.609375,1.296875 C 9.78125,-1.441406 9.429688,-1.070312 9.015625,-0.75 8.609375,-0.425781 8.140625,-0.171875 7.609375,0.015625 7.078125,0.203125 6.5,0.296875 5.875,0.296875 c -0.75,0 -1.445312,-0.136719 -2.078125,-0.40625 -0.636719,-0.28125 -1.1875,-0.664063 -1.65625,-1.15625 -0.460937,-0.488281 -0.820313,-1.050781 -1.078125,-1.6875 -0.261719,-0.644531 -0.390625,-1.332031 -0.390625,-2.0625 0,-0.738281 0.128906,-1.425781 0.390625,-2.0625 0.257812,-0.644531 0.617188,-1.210937 1.078125,-1.703125 0.46875,-0.488281 1.019531,-0.867188 1.65625,-1.140625 0.632813,-0.28125 1.328125,-0.421875 2.078125,-0.421875 0.757812,0 1.445312,0.140625 2.0625,0.421875 0.625,0.273437 1.160156,0.648437 1.609375,1.125 0.445313,0.46875 0.789063,1.015625 1.03125,1.640625 0.238281,0.617188 0.359375,1.265625 0.359375,1.953125 z M 3.140625,-6.21875 H 8.53125 C 8.5,-6.59375 8.359375,-6.9375 8.109375,-7.25 7.859375,-7.5625 7.535156,-7.8125 7.140625,-8 6.753906,-8.1875 6.332031,-8.28125 5.875,-8.28125 c -0.398438,0 -0.777344,0.074219 -1.140625,0.21875 -0.367187,0.148438 -0.6875,0.371094 -0.96875,0.671875 -0.28125,0.304687 -0.492187,0.695313 -0.625,1.171875 z m 0,0"
             id="path31" /></g></g></g><g
       fill="#8b5df7"
       fill-opacity="1"
       id="g37"><g
         transform="translate(252.18936,192.37425)"
         id="g36"><g
           id="g35"><path
             d="M 3.75,0 H 1.390625 V -13.765625 H 3.75 Z m 0,0"
             id="path34" /></g></g></g></g></svg>
